<?xml version="1.0" encoding="UTF-8"?><svg xmlns="http://www.w3.org/2000/svg" xmlns:xlink="http://www.w3.org/1999/xlink" fill-opacity="1" color-rendering="auto" color-interpolation="auto" text-rendering="auto" stroke="black" stroke-linecap="square" width="1272" stroke-miterlimit="10" shape-rendering="auto" stroke-opacity="1" fill="black" stroke-dasharray="none" font-weight="normal" stroke-width="1" height="1355" font-family="'Dialog'" font-style="normal" stroke-linejoin="miter" font-size="12px" stroke-dashoffset="0" image-rendering="auto">
  <!--Generated by ySVG 2.5-->
  <defs id="genericDefs"/>
  <g>
    <defs id="defs1">
      <clipPath clipPathUnits="userSpaceOnUse" id="clipPath1">
        <path d="M0 0 L1272 0 L1272 1355 L0 1355 L0 0 Z"/>
      </clipPath>
      <clipPath clipPathUnits="userSpaceOnUse" id="clipPath2">
        <path d="M1074 337 L2346 337 L2346 1692 L1074 1692 L1074 337 Z"/>
      </clipPath>
    </defs>
    <g fill="white" text-rendering="geometricPrecision" shape-rendering="geometricPrecision" transform="translate(-1074,-337)" stroke="white">
      <rect x="1074" width="1272" height="1355" y="337" clip-path="url(#clipPath2)" stroke="none"/>
    </g>
    <g fill="yellow" text-rendering="geometricPrecision" shape-rendering="geometricPrecision" transform="matrix(1,0,0,1,-1074,-337)" stroke="yellow">
      <rect x="1890.0894" y="1130.0312" clip-path="url(#clipPath2)" width="118.9682" rx="4" ry="4" height="57" stroke="none"/>
    </g>
    <g font-size="10px" stroke-linecap="butt" transform="matrix(1,0,0,1,-1074,-337)" text-rendering="geometricPrecision" font-family="sans-serif" shape-rendering="geometricPrecision" stroke-miterlimit="1.45">
      <text x="1908.9509" xml:space="preserve" y="1162.3104" clip-path="url(#clipPath2)" stroke="none">mo:MusicalWOrk</text>
      <rect x="1890.0894" y="1130.0312" clip-path="url(#clipPath2)" fill="none" width="118.9682" rx="4" ry="4" height="57"/>
    </g>
    <g fill="yellow" text-rendering="geometricPrecision" shape-rendering="geometricPrecision" transform="matrix(1,0,0,1,-1074,-337)" stroke="yellow">
      <rect x="1488.5776" y="1133.0312" clip-path="url(#clipPath2)" width="107.9682" rx="4" ry="4" height="51" stroke="none"/>
    </g>
    <g font-size="10px" stroke-linecap="butt" transform="matrix(1,0,0,1,-1074,-337)" text-rendering="geometricPrecision" font-family="sans-serif" shape-rendering="geometricPrecision" stroke-miterlimit="1.45">
      <text x="1502.3395" xml:space="preserve" y="1162.3104" clip-path="url(#clipPath2)" stroke="none">mo:Composition</text>
      <rect x="1488.5776" y="1133.0312" clip-path="url(#clipPath2)" fill="none" width="107.9682" rx="4" ry="4" height="51"/>
    </g>
    <g fill="yellow" text-rendering="geometricPrecision" shape-rendering="geometricPrecision" transform="matrix(1,0,0,1,-1074,-337)" stroke="yellow">
      <rect x="1488.5776" y="939.4781" clip-path="url(#clipPath2)" width="107.9682" rx="4" ry="4" height="51" stroke="none"/>
    </g>
    <g font-size="10px" stroke-linecap="butt" transform="matrix(1,0,0,1,-1074,-337)" text-rendering="geometricPrecision" font-family="sans-serif" shape-rendering="geometricPrecision" stroke-miterlimit="1.45">
      <text x="1506.0455" xml:space="preserve" y="968.7574" clip-path="url(#clipPath2)" stroke="none">mo:MusicArtist</text>
      <rect x="1488.5776" y="939.4781" clip-path="url(#clipPath2)" fill="none" width="107.9682" rx="4" ry="4" height="51"/>
    </g>
    <g fill="yellow" text-rendering="geometricPrecision" shape-rendering="geometricPrecision" transform="matrix(1,0,0,1,-1074,-337)" stroke="yellow">
      <rect x="1890.0894" y="577.3838" clip-path="url(#clipPath2)" width="118.9682" rx="4" ry="4" height="57" stroke="none"/>
    </g>
    <g font-size="10px" stroke-linecap="butt" transform="matrix(1,0,0,1,-1074,-337)" text-rendering="geometricPrecision" font-family="sans-serif" shape-rendering="geometricPrecision" stroke-miterlimit="1.45">
      <text x="1925.9187" xml:space="preserve" y="609.6631" clip-path="url(#clipPath2)" stroke="none">mo:Genre</text>
      <rect x="1890.0894" y="577.3838" clip-path="url(#clipPath2)" fill="none" width="118.9682" rx="4" ry="4" height="57"/>
    </g>
    <g fill="yellow" text-rendering="geometricPrecision" shape-rendering="geometricPrecision" transform="matrix(1,0,0,1,-1074,-337)" stroke="yellow">
      <rect x="1483.0776" y="1377.5143" clip-path="url(#clipPath2)" width="118.9682" rx="4" ry="4" height="57" stroke="none"/>
    </g>
    <g font-size="10px" stroke-linecap="butt" transform="matrix(1,0,0,1,-1074,-337)" text-rendering="geometricPrecision" font-family="sans-serif" shape-rendering="geometricPrecision" stroke-miterlimit="1.45">
      <text x="1524.5782" xml:space="preserve" y="1409.7937" clip-path="url(#clipPath2)" stroke="none">mo:Key</text>
      <rect x="1483.0776" y="1377.5143" clip-path="url(#clipPath2)" fill="none" width="118.9682" rx="4" ry="4" height="57"/>
      <text x="1648.7354" xml:space="preserve" font-size="16px" y="971.3257" clip-path="url(#clipPath2)" stroke="none">"opus"^^rdfs:Literal</text>
    </g>
    <g fill="yellow" text-rendering="geometricPrecision" shape-rendering="geometricPrecision" transform="matrix(1,0,0,1,-1074,-337)" stroke="yellow">
      <rect x="2211.5332" y="577.3838" clip-path="url(#clipPath2)" width="118.9682" rx="4" ry="4" height="57" stroke="none"/>
    </g>
    <g font-size="10px" stroke-linecap="butt" transform="matrix(1,0,0,1,-1074,-337)" text-rendering="geometricPrecision" font-family="sans-serif" shape-rendering="geometricPrecision" stroke-miterlimit="1.45">
      <text x="2231.2664" xml:space="preserve" y="609.6631" clip-path="url(#clipPath2)" stroke="none">mo:Performance</text>
      <rect x="2211.5332" y="577.3838" clip-path="url(#clipPath2)" fill="none" width="118.9682" rx="4" ry="4" height="57"/>
    </g>
    <g fill="yellow" text-rendering="geometricPrecision" shape-rendering="geometricPrecision" transform="matrix(1,0,0,1,-1074,-337)" stroke="yellow">
      <rect x="1120.9223" y="1130.0312" clip-path="url(#clipPath2)" width="118.9682" rx="4" ry="4" height="57" stroke="none"/>
    </g>
    <g font-size="10px" stroke-linecap="butt" transform="matrix(1,0,0,1,-1074,-337)" text-rendering="geometricPrecision" font-family="sans-serif" shape-rendering="geometricPrecision" stroke-miterlimit="1.45">
      <text x="1157.9285" xml:space="preserve" y="1162.3104" clip-path="url(#clipPath2)" stroke="none">mo:Score</text>
      <rect x="1120.9223" y="1130.0312" clip-path="url(#clipPath2)" fill="none" width="118.9682" rx="4" ry="4" height="57"/>
    </g>
    <g fill="yellow" text-rendering="geometricPrecision" shape-rendering="geometricPrecision" transform="matrix(1,0,0,1,-1074,-337)" stroke="yellow">
      <rect x="2211.5332" y="940.7975" clip-path="url(#clipPath2)" width="118.9682" rx="4" ry="4" height="57" stroke="none"/>
    </g>
    <g font-size="10px" stroke-linecap="butt" transform="matrix(1,0,0,1,-1074,-337)" text-rendering="geometricPrecision" font-family="sans-serif" shape-rendering="geometricPrecision" stroke-miterlimit="1.45">
      <text x="2246.5789" xml:space="preserve" y="973.0768" clip-path="url(#clipPath2)" stroke="none">mo:Sound</text>
      <rect x="2211.5332" y="940.7975" clip-path="url(#clipPath2)" fill="none" width="118.9682" rx="4" ry="4" height="57"/>
    </g>
    <g fill="yellow" text-rendering="geometricPrecision" shape-rendering="geometricPrecision" transform="matrix(1,0,0,1,-1074,-337)" stroke="yellow">
      <rect x="1568.6455" y="577.3838" clip-path="url(#clipPath2)" width="118.9682" rx="4" ry="4" height="57" stroke="none"/>
    </g>
    <g font-size="10px" stroke-linecap="butt" transform="matrix(1,0,0,1,-1074,-337)" text-rendering="geometricPrecision" font-family="sans-serif" shape-rendering="geometricPrecision" stroke-miterlimit="1.45">
      <text x="1587.0725" xml:space="preserve" y="609.6631" clip-path="url(#clipPath2)" stroke="none">mo:Arrangement</text>
      <rect x="1568.6455" y="577.3838" clip-path="url(#clipPath2)" fill="none" width="118.9682" rx="4" ry="4" height="57"/>
    </g>
    <g fill="yellow" text-rendering="geometricPrecision" shape-rendering="geometricPrecision" transform="matrix(1,0,0,1,-1074,-337)" stroke="yellow">
      <rect x="1890.0894" y="352.319" clip-path="url(#clipPath2)" width="118.9682" rx="4" ry="4" height="57" stroke="none"/>
    </g>
    <g font-size="10px" stroke-linecap="butt" transform="matrix(1,0,0,1,-1074,-337)" text-rendering="geometricPrecision" font-family="sans-serif" shape-rendering="geometricPrecision" stroke-miterlimit="1.45">
      <text x="1922.1638" xml:space="preserve" y="384.5983" clip-path="url(#clipPath2)" stroke="none">foaf:Person</text>
      <rect x="1890.0894" y="352.319" clip-path="url(#clipPath2)" fill="none" width="118.9682" rx="4" ry="4" height="57"/>
    </g>
    <g fill="yellow" text-rendering="geometricPrecision" shape-rendering="geometricPrecision" transform="matrix(1,0,0,1,-1074,-337)" stroke="yellow">
      <rect x="1568.6455" y="352.319" clip-path="url(#clipPath2)" width="118.9682" rx="4" ry="4" height="57" stroke="none"/>
    </g>
    <g font-size="10px" stroke-linecap="butt" transform="matrix(1,0,0,1,-1074,-337)" text-rendering="geometricPrecision" font-family="sans-serif" shape-rendering="geometricPrecision" stroke-miterlimit="1.45">
      <text x="1592.2703" xml:space="preserve" y="384.5983" clip-path="url(#clipPath2)" stroke="none">mo:Instrument</text>
      <rect x="1568.6455" y="352.319" clip-path="url(#clipPath2)" fill="none" width="118.9682" rx="4" ry="4" height="57"/>
    </g>
    <g fill="yellow" text-rendering="geometricPrecision" shape-rendering="geometricPrecision" transform="matrix(1,0,0,1,-1074,-337)" stroke="yellow">
      <rect x="2211.5332" y="352.319" clip-path="url(#clipPath2)" width="118.9682" rx="4" ry="4" height="57" stroke="none"/>
    </g>
    <g font-size="10px" stroke-linecap="butt" transform="matrix(1,0,0,1,-1074,-337)" text-rendering="geometricPrecision" font-family="sans-serif" shape-rendering="geometricPrecision" stroke-miterlimit="1.45">
      <text x="2243.6077" xml:space="preserve" y="384.5983" clip-path="url(#clipPath2)" stroke="none">foaf:Person</text>
      <rect x="2211.5332" y="352.319" clip-path="url(#clipPath2)" fill="none" width="118.9682" rx="4" ry="4" height="57"/>
    </g>
    <g fill="yellow" text-rendering="geometricPrecision" shape-rendering="geometricPrecision" transform="matrix(1,0,0,1,-1074,-337)" stroke="yellow">
      <rect x="1889.151" y="1377.5143" clip-path="url(#clipPath2)" width="118.9682" rx="4" ry="4" height="57" stroke="none"/>
    </g>
    <g font-size="10px" stroke-linecap="butt" transform="matrix(1,0,0,1,-1074,-337)" text-rendering="geometricPrecision" font-family="sans-serif" shape-rendering="geometricPrecision" stroke-miterlimit="1.45">
      <text x="1924.7484" xml:space="preserve" y="1409.7937" clip-path="url(#clipPath2)" stroke="none">mo:Signal</text>
      <rect x="1889.151" y="1377.5143" clip-path="url(#clipPath2)" fill="none" width="118.9682" rx="4" ry="4" height="57"/>
    </g>
    <g fill="yellow" text-rendering="geometricPrecision" shape-rendering="geometricPrecision" transform="matrix(1,0,0,1,-1074,-337)" stroke="yellow">
      <rect x="2211.5332" y="1145.7407" clip-path="url(#clipPath2)" width="118.9682" rx="4" ry="4" height="57" stroke="none"/>
    </g>
    <g font-size="10px" stroke-linecap="butt" transform="matrix(1,0,0,1,-1074,-337)" text-rendering="geometricPrecision" font-family="sans-serif" shape-rendering="geometricPrecision" stroke-miterlimit="1.45">
      <text x="2237.2576" xml:space="preserve" y="1178.02" clip-path="url(#clipPath2)" stroke="none">mo:Recording</text>
      <rect x="2211.5332" y="1145.7407" clip-path="url(#clipPath2)" fill="none" width="118.9682" rx="4" ry="4" height="57"/>
    </g>
    <g fill="yellow" text-rendering="geometricPrecision" shape-rendering="geometricPrecision" transform="matrix(1,0,0,1,-1074,-337)" stroke="yellow">
      <rect x="2211.5332" y="1377.5143" clip-path="url(#clipPath2)" width="118.9682" rx="4" ry="4" height="57" stroke="none"/>
    </g>
    <g font-size="10px" stroke-linecap="butt" transform="matrix(1,0,0,1,-1074,-337)" text-rendering="geometricPrecision" font-family="sans-serif" shape-rendering="geometricPrecision" stroke-miterlimit="1.45">
      <text x="2244.9236" xml:space="preserve" y="1409.7937" clip-path="url(#clipPath2)" stroke="none">mo:Record</text>
      <rect x="2211.5332" y="1377.5143" clip-path="url(#clipPath2)" fill="none" width="118.9682" rx="4" ry="4" height="57"/>
    </g>
    <g fill="yellow" text-rendering="geometricPrecision" shape-rendering="geometricPrecision" transform="matrix(1,0,0,1,-1074,-337)" stroke="yellow">
      <rect x="1120.9223" y="936.4781" clip-path="url(#clipPath2)" width="118.9682" rx="4" ry="4" height="57" stroke="none"/>
    </g>
    <g font-size="10px" stroke-linecap="butt" transform="matrix(1,0,0,1,-1074,-337)" text-rendering="geometricPrecision" font-family="sans-serif" shape-rendering="geometricPrecision" stroke-miterlimit="1.45">
      <text x="1134.4397" xml:space="preserve" y="968.7574" clip-path="url(#clipPath2)" stroke="none">mo:PublishedScore</text>
      <rect x="1120.9223" y="936.4781" clip-path="url(#clipPath2)" fill="none" width="118.9682" rx="4" ry="4" height="57"/>
      <text x="1091.9504" xml:space="preserve" font-size="12px" y="1263.5648" clip-path="url(#clipPath2)" stroke="none">"movement_number"^^xsd:int</text>
    </g>
    <g fill="yellow" text-rendering="geometricPrecision" shape-rendering="geometricPrecision" transform="matrix(1,0,0,1,-1074,-337)" stroke="yellow">
      <rect x="2211.5332" y="1619.1099" clip-path="url(#clipPath2)" width="118.9682" rx="4" ry="4" height="57" stroke="none"/>
    </g>
    <g font-size="10px" stroke-linecap="butt" transform="matrix(1,0,0,1,-1074,-337)" text-rendering="geometricPrecision" font-family="sans-serif" shape-rendering="geometricPrecision" stroke-miterlimit="1.45">
      <text x="2230.1824" xml:space="preserve" y="1651.3892" clip-path="url(#clipPath2)" stroke="none">mo:AnalogSignal</text>
      <rect x="2211.5332" y="1619.1099" clip-path="url(#clipPath2)" fill="none" width="118.9682" rx="4" ry="4" height="57"/>
    </g>
    <g fill="yellow" text-rendering="geometricPrecision" shape-rendering="geometricPrecision" transform="matrix(1,0,0,1,-1074,-337)" stroke="yellow">
      <rect x="1890.0894" y="1619.1099" clip-path="url(#clipPath2)" width="118.9682" rx="4" ry="4" height="57" stroke="none"/>
    </g>
    <g font-size="10px" stroke-linecap="butt" transform="matrix(1,0,0,1,-1074,-337)" text-rendering="geometricPrecision" font-family="sans-serif" shape-rendering="geometricPrecision" stroke-miterlimit="1.45">
      <text x="1909.8567" xml:space="preserve" y="1651.3892" clip-path="url(#clipPath2)" stroke="none">mo:DigitalSignal</text>
      <rect x="1890.0894" y="1619.1099" clip-path="url(#clipPath2)" fill="none" width="118.9682" rx="4" ry="4" height="57"/>
    </g>
    <g fill="yellow" text-rendering="geometricPrecision" shape-rendering="geometricPrecision" transform="matrix(1,0,0,1,-1074,-337)" stroke="yellow">
      <rect x="1120.9223" y="1377.5143" clip-path="url(#clipPath2)" width="118.9682" rx="4" ry="4" height="57" stroke="none"/>
    </g>
    <g font-size="10px" stroke-linecap="butt" transform="matrix(1,0,0,1,-1074,-337)" text-rendering="geometricPrecision" font-family="sans-serif" shape-rendering="geometricPrecision" stroke-miterlimit="1.45">
      <text x="1145.907" xml:space="preserve" y="1409.7937" clip-path="url(#clipPath2)" stroke="none">mo:Movement</text>
      <rect x="1120.9223" y="1377.5143" clip-path="url(#clipPath2)" fill="none" width="118.9682" rx="4" ry="4" height="57"/>
    </g>
    <g stroke-linecap="butt" transform="matrix(1,0,0,1,-1074,-337)" fill="navy" text-rendering="geometricPrecision" shape-rendering="geometricPrecision" stroke="navy" stroke-miterlimit="1.45">
      <path fill="none" d="M1886.1017 1158.5311 L1607.5679 1158.5311" clip-path="url(#clipPath2)"/>
      <path d="M1894.1017 1158.5311 C1894.1017 1160.7402 1892.3108 1162.5311 1890.1017 1162.5311 C1887.8926 1162.5311 1886.1017 1160.7402 1886.1017 1158.5311 C1886.1017 1156.322 1887.8926 1154.5311 1890.1017 1154.5311 C1892.3108 1154.5311 1894.1017 1156.322 1894.1017 1158.5311 Z" clip-path="url(#clipPath2)" stroke="none"/>
      <path d="M1596.5679 1158.5311 L1608.5679 1164.5311 L1608.5679 1152.5311 Z" clip-path="url(#clipPath2)" stroke="none"/>
      <rect x="1699.9479" y="1150.6425" clip-path="url(#clipPath2)" fill="white" width="86.7393" height="15.7773" stroke="none"/>
      <text x="1701.948" font-size="10px" y="1162.3104" clip-path="url(#clipPath2)" font-family="sans-serif" stroke="none" xml:space="preserve">mo:composed_in</text>
      <path fill="none" d="M1542.5616 1129.0612 L1542.5616 1001.4614" clip-path="url(#clipPath2)"/>
      <path d="M1542.5616 1137.0612 C1540.3525 1137.0612 1538.5616 1135.2703 1538.5616 1133.0612 C1538.5616 1130.8521 1540.3525 1129.0612 1542.5616 1129.0612 C1544.7708 1129.0612 1546.5616 1130.8521 1546.5616 1133.0612 C1546.5616 1135.2703 1544.7708 1137.0612 1542.5616 1137.0612 Z" clip-path="url(#clipPath2)" stroke="none"/>
      <path d="M1542.5616 990.4614 L1536.5616 1002.4614 L1548.5616 1002.4614 Z" clip-path="url(#clipPath2)" stroke="none"/>
      <rect x="1507.3415" y="1053.8659" clip-path="url(#clipPath2)" fill="white" width="70.4404" height="15.7773" stroke="none"/>
      <text x="1509.3414" font-size="10px" y="1065.5339" clip-path="url(#clipPath2)" font-family="sans-serif" stroke="none" xml:space="preserve">mo:composer</text>
      <path fill="none" d="M1949.5735 1126.0286 L1949.5735 645.388" clip-path="url(#clipPath2)"/>
      <path d="M1949.5735 1134.0286 C1947.3644 1134.0286 1945.5735 1132.2377 1945.5735 1130.0286 C1945.5735 1127.8195 1947.3644 1126.0286 1949.5735 1126.0286 C1951.7826 1126.0286 1953.5735 1127.8195 1953.5735 1130.0286 C1953.5735 1132.2377 1951.7826 1134.0286 1949.5735 1134.0286 Z" clip-path="url(#clipPath2)" stroke="none"/>
      <path d="M1949.5735 634.388 L1943.5735 646.388 L1955.5735 646.388 Z" clip-path="url(#clipPath2)" stroke="none"/>
      <rect x="1924.4143" y="874.3188" clip-path="url(#clipPath2)" fill="white" width="50.3184" height="15.7773" stroke="none"/>
      <text x="1926.4143" font-size="10px" y="885.9868" clip-path="url(#clipPath2)" font-family="sans-serif" stroke="none" xml:space="preserve">mo:genre</text>
      <path fill="none" d="M1899.2788 1189.1128 L1598.8458 1371.7909" clip-path="url(#clipPath2)"/>
      <path d="M1906.1143 1184.9565 C1907.2621 1186.8441 1906.6622 1189.3047 1904.7747 1190.4524 C1902.8871 1191.6002 1900.4265 1191.0004 1899.2788 1189.1128 C1898.131 1187.2252 1898.7308 1184.7646 1900.6184 1183.6169 C1902.506 1182.4691 1904.9666 1183.069 1906.1143 1184.9565 Z" clip-path="url(#clipPath2)" stroke="none"/>
      <path d="M1589.4469 1377.5059 L1602.8175 1376.3981 L1596.583 1366.1447 Z" clip-path="url(#clipPath2)" stroke="none"/>
      <rect x="1726.426" y="1274.3841" clip-path="url(#clipPath2)" fill="white" width="39.2832" height="15.7773" stroke="none"/>
      <text x="1728.426" font-size="10px" y="1286.052" clip-path="url(#clipPath2)" font-family="sans-serif" stroke="none" xml:space="preserve">mo:key</text>
      <path fill="none" d="M1913.5641 1127.3971 L1747.0587 983.4348" clip-path="url(#clipPath2)" stroke="green"/>
    </g>
    <g stroke-linecap="butt" transform="matrix(1,0,0,1,-1074,-337)" fill-opacity="0" fill="rgb(0,0,0)" text-rendering="geometricPrecision" shape-rendering="geometricPrecision" stroke="rgb(0,0,0)" stroke-opacity="0" stroke-miterlimit="1.45">
      <path d="M1919.6158 1132.6295 C1918.1709 1134.3005 1915.6449 1134.484 1913.9738 1133.0392 C1912.3027 1131.5942 1912.1193 1129.0682 1913.5641 1127.3971 C1915.009 1125.7261 1917.535 1125.5426 1919.2062 1126.9874 C1920.8772 1128.4324 1921.0607 1130.9584 1919.6158 1132.6295 Z" stroke="none" clip-path="url(#clipPath2)"/>
    </g>
    <g stroke-linecap="butt" transform="matrix(1,0,0,1,-1074,-337)" fill="green" text-rendering="geometricPrecision" shape-rendering="geometricPrecision" stroke="green" stroke-miterlimit="1.45">
      <path fill="none" d="M1919.6158 1132.6295 C1918.1709 1134.3005 1915.6449 1134.484 1913.9738 1133.0392 C1912.3027 1131.5942 1912.1193 1129.0682 1913.5641 1127.3971 C1915.009 1125.7261 1917.535 1125.5426 1919.2062 1126.9874 C1920.8772 1128.4324 1921.0607 1130.9584 1919.6158 1132.6295 Z" clip-path="url(#clipPath2)"/>
      <path fill="white" d="M1735.7119 973.6241 L1743.891 988.6276 L1751.7395 979.5501 Z" clip-path="url(#clipPath2)" stroke="none"/>
      <path fill="none" d="M1735.7119 973.6241 L1743.891 988.6276 L1751.7395 979.5501 Z" clip-path="url(#clipPath2)"/>
      <rect x="1802.2554" y="1043.3213" clip-path="url(#clipPath2)" fill="white" width="46.3828" height="15.7773" stroke="none"/>
      <text x="1804.2554" font-size="10px" y="1054.9893" clip-path="url(#clipPath2)" font-family="sans-serif" stroke="none" xml:space="preserve">mo:opus</text>
      <path fill="none" d="M2252.4277 637.8441 L1971.6833 1120.5184" clip-path="url(#clipPath2)" stroke="navy"/>
      <path fill="navy" d="M2256.4502 630.9289 C2258.3599 632.0396 2259.0073 634.4881 2257.8965 636.3977 C2256.7859 638.3073 2254.3374 638.9548 2252.4277 637.8441 C2250.5181 636.7333 2249.8706 634.2849 2250.9814 632.3752 C2252.092 630.4657 2254.5405 629.8181 2256.4502 630.9289 Z" clip-path="url(#clipPath2)" stroke="none"/>
      <path fill="navy" d="M1966.1527 1130.027 L1977.3726 1122.6708 L1966.9996 1116.6373 Z" clip-path="url(#clipPath2)" stroke="none"/>
      <rect x="2060.7515" y="874.3188" clip-path="url(#clipPath2)" fill="white" width="99.0879" height="15.7773" stroke="none"/>
    </g>
    <g stroke-linecap="butt" font-size="10px" transform="matrix(1,0,0,1,-1074,-337)" fill="navy" text-rendering="geometricPrecision" font-family="sans-serif" shape-rendering="geometricPrecision" stroke="navy" stroke-miterlimit="1.45">
      <text x="2062.7515" xml:space="preserve" y="885.9868" clip-path="url(#clipPath2)" stroke="none">mo:performance_of</text>
      <path fill="none" d="M2207.5706 605.8838 L2020.0282 605.8838" clip-path="url(#clipPath2)"/>
      <path d="M2215.5706 605.8838 C2215.5706 608.093 2213.7798 609.8838 2211.5706 609.8838 C2209.3613 609.8838 2207.5706 608.093 2207.5706 605.8838 C2207.5706 603.6746 2209.3613 601.8838 2211.5706 601.8838 C2213.7798 601.8838 2215.5706 603.6746 2215.5706 605.8838 Z" stroke="none" clip-path="url(#clipPath2)"/>
      <path d="M2009.0282 605.8838 L2021.0282 611.8838 L2021.0282 599.8838 Z" stroke="none" clip-path="url(#clipPath2)"/>
    </g>
    <g stroke-linecap="butt" transform="matrix(1,0,0,1,-1074,-337)" fill="white" text-rendering="geometricPrecision" shape-rendering="geometricPrecision" stroke="white" stroke-miterlimit="1.45">
      <rect x="2085.1362" width="50.3184" height="15.7773" y="597.9951" clip-path="url(#clipPath2)" stroke="none"/>
    </g>
    <g stroke-linecap="butt" font-size="10px" transform="matrix(1,0,0,1,-1074,-337)" fill="navy" text-rendering="geometricPrecision" font-family="sans-serif" shape-rendering="geometricPrecision" stroke="navy" stroke-miterlimit="1.45">
      <text x="2087.1362" xml:space="preserve" y="609.6631" clip-path="url(#clipPath2)" stroke="none">mo:genre</text>
      <path fill="none" d="M1484.5833 1158.5311 L1250.8824 1158.5311" clip-path="url(#clipPath2)"/>
      <path d="M1492.5833 1158.5311 C1492.5833 1160.7402 1490.7924 1162.5311 1488.5833 1162.5311 C1486.3741 1162.5311 1484.5833 1160.7402 1484.5833 1158.5311 C1484.5833 1156.322 1486.3741 1154.5311 1488.5833 1154.5311 C1490.7924 1154.5311 1492.5833 1156.322 1492.5833 1158.5311 Z" stroke="none" clip-path="url(#clipPath2)"/>
      <path d="M1239.8824 1158.5311 L1251.8824 1164.5311 L1251.8824 1152.5311 Z" stroke="none" clip-path="url(#clipPath2)"/>
    </g>
    <g stroke-linecap="butt" transform="matrix(1,0,0,1,-1074,-337)" fill="white" text-rendering="geometricPrecision" shape-rendering="geometricPrecision" stroke="white" stroke-miterlimit="1.45">
      <rect x="1314.3923" width="99.6836" height="15.7773" y="1150.6425" clip-path="url(#clipPath2)" stroke="none"/>
    </g>
    <g stroke-linecap="butt" font-size="10px" transform="matrix(1,0,0,1,-1074,-337)" fill="navy" text-rendering="geometricPrecision" font-family="sans-serif" shape-rendering="geometricPrecision" stroke="navy" stroke-miterlimit="1.45">
      <text x="1316.3922" xml:space="preserve" y="1162.3104" clip-path="url(#clipPath2)" stroke="none">mo:produced_score</text>
      <path fill="none" d="M2271.0173 638.4086 L2271.0173 929.8041" clip-path="url(#clipPath2)"/>
      <path d="M2271.0173 630.4086 C2273.2266 630.4086 2275.0173 632.1994 2275.0173 634.4086 C2275.0173 636.6177 2273.2266 638.4086 2271.0173 638.4086 C2268.8081 638.4086 2267.0173 636.6177 2267.0173 634.4086 C2267.0173 632.1994 2268.8081 630.4086 2271.0173 630.4086 Z" stroke="none" clip-path="url(#clipPath2)"/>
      <path d="M2271.0173 940.8041 L2277.0173 928.8041 L2265.0173 928.8041 Z" stroke="none" clip-path="url(#clipPath2)"/>
    </g>
    <g stroke-linecap="butt" transform="matrix(1,0,0,1,-1074,-337)" fill="white" text-rendering="geometricPrecision" shape-rendering="geometricPrecision" stroke="white" stroke-miterlimit="1.45">
      <rect x="2219.2151" width="103.6045" height="15.7773" y="779.702" clip-path="url(#clipPath2)" stroke="none"/>
    </g>
    <g stroke-linecap="butt" font-size="10px" transform="matrix(1,0,0,1,-1074,-337)" fill="navy" text-rendering="geometricPrecision" font-family="sans-serif" shape-rendering="geometricPrecision" stroke="navy" stroke-miterlimit="1.45">
      <text x="2221.2151" xml:space="preserve" y="791.3699" clip-path="url(#clipPath2)" stroke="none">mo:produced_sound</text>
      <path fill="none" d="M1646.7191 637.8441 L1927.4636 1120.5184" clip-path="url(#clipPath2)"/>
      <path d="M1642.6969 630.9288 C1644.6064 629.8181 1647.0549 630.4657 1648.1656 632.3753 C1649.2764 634.2849 1648.6288 636.7333 1646.7191 637.8441 C1644.8096 638.9548 1642.3611 638.3071 1641.2504 636.3975 C1640.1396 634.4879 1640.7872 632.0395 1642.6969 630.9288 Z" stroke="none" clip-path="url(#clipPath2)"/>
      <path d="M1932.9941 1130.027 L1932.1473 1116.6373 L1921.7743 1122.6707 Z" stroke="none" clip-path="url(#clipPath2)"/>
    </g>
    <g stroke-linecap="butt" transform="matrix(1,0,0,1,-1074,-337)" fill="white" text-rendering="geometricPrecision" shape-rendering="geometricPrecision" stroke="white" stroke-miterlimit="1.45">
      <rect x="1739.0732" width="99.5566" height="15.7773" y="874.3188" clip-path="url(#clipPath2)" stroke="none"/>
    </g>
    <g stroke-linecap="butt" font-size="10px" transform="matrix(1,0,0,1,-1074,-337)" fill="navy" text-rendering="geometricPrecision" font-family="sans-serif" shape-rendering="geometricPrecision" stroke="navy" stroke-miterlimit="1.45">
      <text x="1741.0732" xml:space="preserve" y="885.9868" clip-path="url(#clipPath2)" stroke="none">mo:arrangement_of</text>
      <path fill="none" d="M1691.5763 605.8838 L1879.1188 605.8838" clip-path="url(#clipPath2)"/>
      <path d="M1683.5763 605.8838 C1683.5763 603.6746 1685.3672 601.8838 1687.5763 601.8838 C1689.7854 601.8838 1691.5763 603.6746 1691.5763 605.8838 C1691.5763 608.093 1689.7854 609.8838 1687.5763 609.8838 C1685.3672 609.8838 1683.5763 608.093 1683.5763 605.8838 Z" stroke="none" clip-path="url(#clipPath2)"/>
      <path d="M1890.1188 605.8838 L1878.1188 599.8838 L1878.1188 611.8838 Z" stroke="none" clip-path="url(#clipPath2)"/>
    </g>
    <g stroke-linecap="butt" transform="matrix(1,0,0,1,-1074,-337)" fill="white" text-rendering="geometricPrecision" shape-rendering="geometricPrecision" stroke="white" stroke-miterlimit="1.45">
      <rect x="1763.6924" width="50.3184" height="15.7773" y="597.9951" clip-path="url(#clipPath2)" stroke="none"/>
    </g>
    <g stroke-linecap="butt" font-size="10px" transform="matrix(1,0,0,1,-1074,-337)" fill="navy" text-rendering="geometricPrecision" font-family="sans-serif" shape-rendering="geometricPrecision" stroke="navy" stroke-miterlimit="1.45">
      <text x="1765.6924" xml:space="preserve" y="609.6631" clip-path="url(#clipPath2)" stroke="none">mo:genre</text>
      <path fill="none" d="M1602.5205 637.4944 L1210.4233 1121.4799" clip-path="url(#clipPath2)"/>
      <path d="M1607.5564 631.2784 C1609.2729 632.669 1609.5371 635.1879 1608.1465 636.9044 C1606.7559 638.6209 1604.2371 638.8851 1602.5205 637.4944 C1600.804 636.1038 1600.5398 633.585 1601.9304 631.8685 C1603.321 630.1519 1605.8398 629.8878 1607.5564 631.2784 Z" stroke="none" clip-path="url(#clipPath2)"/>
      <path d="M1203.4989 1130.027 L1215.7148 1124.4799 L1206.3907 1116.9259 Z" stroke="none" clip-path="url(#clipPath2)"/>
    </g>
    <g stroke-linecap="butt" transform="matrix(1,0,0,1,-1074,-337)" fill="white" text-rendering="geometricPrecision" shape-rendering="geometricPrecision" stroke="white" stroke-miterlimit="1.45">
      <rect x="1354.4262" width="99.6836" height="15.7773" y="874.3188" clip-path="url(#clipPath2)" stroke="none"/>
    </g>
    <g stroke-linecap="butt" font-size="10px" transform="matrix(1,0,0,1,-1074,-337)" fill="navy" text-rendering="geometricPrecision" font-family="sans-serif" shape-rendering="geometricPrecision" stroke="navy" stroke-miterlimit="1.45">
      <text x="1356.4263" xml:space="preserve" y="885.9868" clip-path="url(#clipPath2)" stroke="none">mo:produced_score</text>
      <path fill="none" d="M2227.05 575.0993 L1999.2648 415.6112" clip-path="url(#clipPath2)"/>
      <path d="M2233.6033 579.6878 C2232.3362 581.4974 2229.842 581.9373 2228.0325 580.6702 C2226.2229 579.4031 2225.783 576.909 2227.05 575.0993 C2228.3171 573.2897 2230.8113 572.8499 2232.6208 574.1169 C2234.4304 575.384 2234.8704 577.8781 2233.6033 579.6878 Z" stroke="none" clip-path="url(#clipPath2)"/>
      <path d="M1990.2539 409.3021 L1996.6426 421.0998 L2003.5253 411.2697 Z" stroke="none" clip-path="url(#clipPath2)"/>
    </g>
    <g stroke-linecap="butt" transform="matrix(1,0,0,1,-1074,-337)" fill="white" text-rendering="geometricPrecision" shape-rendering="geometricPrecision" stroke="white" stroke-miterlimit="1.45">
      <rect x="2074.5405" width="71.5098" height="15.7773" y="485.4627" clip-path="url(#clipPath2)" stroke="none"/>
    </g>
    <g stroke-linecap="butt" font-size="10px" transform="matrix(1,0,0,1,-1074,-337)" fill="navy" text-rendering="geometricPrecision" font-family="sans-serif" shape-rendering="geometricPrecision" stroke="navy" stroke-miterlimit="1.45">
      <text x="2076.5405" xml:space="preserve" y="497.1307" clip-path="url(#clipPath2)" stroke="none">mo:performer</text>
      <path fill="none" d="M2207.7954 583.7507 L1698.0167 405.2853" clip-path="url(#clipPath2)"/>
      <path d="M2215.3462 586.3943 C2214.6162 588.4793 2212.334 589.5778 2210.249 588.8478 C2208.1641 588.1178 2207.0654 585.8358 2207.7954 583.7507 C2208.5254 581.6657 2210.8076 580.5672 2212.8926 581.2972 C2214.9775 582.0272 2216.0762 584.3093 2215.3462 586.3943 Z" stroke="none" clip-path="url(#clipPath2)"/>
      <path d="M1687.6345 401.6507 L1696.978 411.2787 L1700.943 399.9528 Z" stroke="none" clip-path="url(#clipPath2)"/>
    </g>
    <g stroke-linecap="butt" transform="matrix(1,0,0,1,-1074,-337)" fill="white" text-rendering="geometricPrecision" shape-rendering="geometricPrecision" stroke="white" stroke-miterlimit="1.45">
      <rect x="1911.7092" width="75.7285" height="15.7773" y="485.4627" clip-path="url(#clipPath2)" stroke="none"/>
    </g>
    <g stroke-linecap="butt" font-size="10px" transform="matrix(1,0,0,1,-1074,-337)" fill="navy" text-rendering="geometricPrecision" font-family="sans-serif" shape-rendering="geometricPrecision" stroke="navy" stroke-miterlimit="1.45">
      <text x="1913.7092" xml:space="preserve" y="497.1307" clip-path="url(#clipPath2)" stroke="none">mo:instrument</text>
      <path fill="none" d="M2271.0173 573.3935 L2271.0173 420.2781" clip-path="url(#clipPath2)"/>
      <path d="M2271.0173 581.3935 C2268.8081 581.3935 2267.0173 579.6027 2267.0173 577.3935 C2267.0173 575.1843 2268.8081 573.3935 2271.0173 573.3935 C2273.2266 573.3935 2275.0173 575.1843 2275.0173 577.3935 C2275.0173 579.6027 2273.2266 581.3935 2271.0173 581.3935 Z" stroke="none" clip-path="url(#clipPath2)"/>
      <path d="M2271.0173 409.2781 L2265.0173 421.2781 L2277.0173 421.2781 Z" stroke="none" clip-path="url(#clipPath2)"/>
    </g>
    <g stroke-linecap="butt" transform="matrix(1,0,0,1,-1074,-337)" fill="white" text-rendering="geometricPrecision" shape-rendering="geometricPrecision" stroke="white" stroke-miterlimit="1.45">
      <rect x="2235.1624" width="71.71" height="15.7773" y="485.4627" clip-path="url(#clipPath2)" stroke="none"/>
    </g>
    <g stroke-linecap="butt" font-size="10px" transform="matrix(1,0,0,1,-1074,-337)" fill="navy" text-rendering="geometricPrecision" font-family="sans-serif" shape-rendering="geometricPrecision" stroke="navy" stroke-miterlimit="1.45">
      <text x="2237.1624" xml:space="preserve" y="497.1307" clip-path="url(#clipPath2)" stroke="none">mo:conductor</text>
      <path fill="none" d="M2258.0413 638.0898 L1964.236 1367.2942" clip-path="url(#clipPath2)"/>
      <path d="M2261.031 630.6696 C2263.0801 631.4951 2264.0718 633.8255 2263.2463 635.8746 C2262.4207 637.9236 2260.0903 638.9155 2258.0413 638.0898 C2255.9922 637.2643 2255.0005 634.9339 2255.8259 632.8848 C2256.6516 630.8358 2258.9819 629.8439 2261.031 630.6696 Z" stroke="none" clip-path="url(#clipPath2)"/>
      <path d="M1960.125 1377.4972 L1970.1749 1368.609 L1959.0444 1364.1244 Z" stroke="none" clip-path="url(#clipPath2)"/>
    </g>
    <g stroke-linecap="butt" transform="matrix(1,0,0,1,-1074,-337)" fill="white" text-rendering="geometricPrecision" shape-rendering="geometricPrecision" stroke="white" stroke-miterlimit="1.45">
      <rect x="2069.1055" width="81.4414" height="15.7773" y="998.0604" clip-path="url(#clipPath2)" stroke="none"/>
    </g>
    <g stroke-linecap="butt" font-size="10px" transform="matrix(1,0,0,1,-1074,-337)" fill="navy" text-rendering="geometricPrecision" font-family="sans-serif" shape-rendering="geometricPrecision" stroke="navy" stroke-miterlimit="1.45">
      <text x="2071.1055" xml:space="preserve" y="1009.7283" clip-path="url(#clipPath2)" stroke="none">mo:recorded_as</text>
      <path fill="none" d="M1885.1022 1406.0144 L1613.0811 1406.0144" clip-path="url(#clipPath2)"/>
      <path d="M1893.1022 1406.0144 C1893.1022 1408.2235 1891.3113 1410.0144 1889.1022 1410.0144 C1886.8931 1410.0144 1885.1022 1408.2235 1885.1022 1406.0144 C1885.1022 1403.8053 1886.8931 1402.0144 1889.1022 1402.0144 C1891.3113 1402.0144 1893.1022 1403.8053 1893.1022 1406.0144 Z" stroke="none" clip-path="url(#clipPath2)"/>
      <path d="M1602.0811 1406.0144 L1614.0811 1412.0144 L1614.0811 1400.0144 Z" stroke="none" clip-path="url(#clipPath2)"/>
    </g>
    <g stroke-linecap="butt" transform="matrix(1,0,0,1,-1074,-337)" fill="white" text-rendering="geometricPrecision" shape-rendering="geometricPrecision" stroke="white" stroke-miterlimit="1.45">
      <rect x="1725.9568" width="39.2832" height="15.7773" y="1398.1257" clip-path="url(#clipPath2)" stroke="none"/>
    </g>
    <g stroke-linecap="butt" font-size="10px" transform="matrix(1,0,0,1,-1074,-337)" fill="navy" text-rendering="geometricPrecision" font-family="sans-serif" shape-rendering="geometricPrecision" stroke="navy" stroke-miterlimit="1.45">
      <text x="1727.9568" xml:space="preserve" y="1409.7937" clip-path="url(#clipPath2)" stroke="none">mo:key</text>
      <path fill="none" d="M2271.0173 1141.7458 L2271.0173 1008.7722" clip-path="url(#clipPath2)"/>
      <path d="M2271.0173 1149.7458 C2268.8081 1149.7458 2267.0173 1147.955 2267.0173 1145.7458 C2267.0173 1143.5367 2268.8081 1141.7458 2271.0173 1141.7458 C2273.2266 1141.7458 2275.0173 1143.5367 2275.0173 1145.7458 C2275.0173 1147.955 2273.2266 1149.7458 2271.0173 1149.7458 Z" stroke="none" clip-path="url(#clipPath2)"/>
      <path d="M2271.0173 997.7722 L2265.0173 1009.7722 L2277.0173 1009.7722 Z" stroke="none" clip-path="url(#clipPath2)"/>
    </g>
    <g stroke-linecap="butt" transform="matrix(1,0,0,1,-1074,-337)" fill="white" text-rendering="geometricPrecision" shape-rendering="geometricPrecision" stroke="white" stroke-miterlimit="1.45">
      <rect x="2228.9636" width="84.1074" height="15.7773" y="1063.8805" clip-path="url(#clipPath2)" stroke="none"/>
    </g>
    <g stroke-linecap="butt" font-size="10px" transform="matrix(1,0,0,1,-1074,-337)" fill="navy" text-rendering="geometricPrecision" font-family="sans-serif" shape-rendering="geometricPrecision" stroke="navy" stroke-miterlimit="1.45">
      <text x="2230.9636" xml:space="preserve" y="1075.5485" clip-path="url(#clipPath2)" stroke="none">mo:recording_of</text>
      <path fill="none" d="M2228.1409 1205.0664 L1997.2252 1371.0811" clip-path="url(#clipPath2)"/>
      <path d="M2234.6365 1200.3965 C2235.926 1202.1902 2235.5173 1204.6897 2233.7236 1205.9792 C2231.9299 1207.2688 2229.4304 1206.8601 2228.1409 1205.0664 C2226.8513 1203.2727 2227.26 1200.7732 2229.0537 1199.4836 C2230.8474 1198.1941 2233.3469 1198.6028 2234.6365 1200.3965 Z" stroke="none" clip-path="url(#clipPath2)"/>
      <path d="M1988.2938 1377.5021 L2001.5396 1375.369 L1994.5348 1365.6256 Z" stroke="none" clip-path="url(#clipPath2)"/>
    </g>
    <g stroke-linecap="butt" transform="matrix(1,0,0,1,-1074,-337)" fill="white" text-rendering="geometricPrecision" shape-rendering="geometricPrecision" stroke="white" stroke-miterlimit="1.45">
      <rect x="2058.5758" width="102.501" height="15.7773" y="1282.2389" clip-path="url(#clipPath2)" stroke="none"/>
    </g>
    <g stroke-linecap="butt" font-size="10px" transform="matrix(1,0,0,1,-1074,-337)" fill="navy" text-rendering="geometricPrecision" font-family="sans-serif" shape-rendering="geometricPrecision" stroke="navy" stroke-miterlimit="1.45">
      <text x="2060.5757" xml:space="preserve" y="1293.9069" clip-path="url(#clipPath2)" stroke="none">mo:produced_signal</text>
      <path fill="none" d="M2012.098 1406.0144 L2200.5459 1406.0144" clip-path="url(#clipPath2)"/>
      <path d="M2004.098 1406.0144 C2004.098 1403.8053 2005.8889 1402.0144 2008.098 1402.0144 C2010.3071 1402.0144 2012.098 1403.8053 2012.098 1406.0144 C2012.098 1408.2235 2010.3071 1410.0144 2008.098 1410.0144 C2005.8889 1410.0144 2004.098 1408.2235 2004.098 1406.0144 Z" stroke="none" clip-path="url(#clipPath2)"/>
      <path d="M2211.5459 1406.0144 L2199.5459 1400.0144 L2199.5459 1412.0144 Z" stroke="none" clip-path="url(#clipPath2)"/>
    </g>
    <g stroke-linecap="butt" transform="matrix(1,0,0,1,-1074,-337)" fill="white" text-rendering="geometricPrecision" shape-rendering="geometricPrecision" stroke="white" stroke-miterlimit="1.45">
      <rect x="2066.8228" width="86.0068" height="15.7773" y="1398.1257" clip-path="url(#clipPath2)" stroke="none"/>
    </g>
    <g stroke-linecap="butt" font-size="10px" transform="matrix(1,0,0,1,-1074,-337)" fill="navy" text-rendering="geometricPrecision" font-family="sans-serif" shape-rendering="geometricPrecision" stroke="navy" stroke-miterlimit="1.45">
      <text x="2068.8228" xml:space="preserve" y="1409.7937" clip-path="url(#clipPath2)" stroke="none">mo:published_as</text>
      <path fill="none" d="M1180.4065 1126.0369 L1180.4065 1004.4684" clip-path="url(#clipPath2)"/>
      <path d="M1180.4065 1134.0369 C1178.1974 1134.0369 1176.4065 1132.246 1176.4065 1130.0369 C1176.4065 1127.8278 1178.1974 1126.0369 1180.4065 1126.0369 C1182.6156 1126.0369 1184.4065 1127.8278 1184.4065 1130.0369 C1184.4065 1132.246 1182.6156 1134.0369 1180.4065 1134.0369 Z" stroke="none" clip-path="url(#clipPath2)"/>
      <path d="M1180.4065 993.4684 L1174.4065 1005.4684 L1186.4065 1005.4684 Z" stroke="none" clip-path="url(#clipPath2)"/>
    </g>
    <g stroke-linecap="butt" transform="matrix(1,0,0,1,-1074,-337)" fill="white" text-rendering="geometricPrecision" shape-rendering="geometricPrecision" stroke="white" stroke-miterlimit="1.45">
      <rect x="1137.403" width="86.0068" height="15.7773" y="1053.8659" clip-path="url(#clipPath2)" stroke="none"/>
    </g>
    <g stroke-linecap="butt" font-size="10px" transform="matrix(1,0,0,1,-1074,-337)" fill="navy" text-rendering="geometricPrecision" font-family="sans-serif" shape-rendering="geometricPrecision" stroke="navy" stroke-miterlimit="1.45">
      <text x="1139.4031" xml:space="preserve" y="1065.5339" clip-path="url(#clipPath2)" stroke="none">mo:published_as</text>
    </g>
    <g text-rendering="geometricPrecision" stroke-miterlimit="1.45" shape-rendering="geometricPrecision" transform="matrix(1,0,0,1,-1074,-337)" stroke-linecap="butt">
      <path fill="none" d="M2232.9626 1619.0914 L1993.0422 1439.2933" clip-path="url(#clipPath2)"/>
      <path d="M1986.6404 1434.4957 L1993.2446 1445.6932 L1993.8424 1439.8929 L1999.2416 1437.6909 Z" clip-path="url(#clipPath2)" stroke="none"/>
      <rect x="2070.5899" y="1518.9235" clip-path="url(#clipPath2)" fill="white" width="78.4727" height="15.7773" stroke="none"/>
      <text x="2072.5898" font-size="10px" y="1530.5914" clip-path="url(#clipPath2)" font-family="sans-serif" stroke="none" xml:space="preserve">owl:subClassOf</text>
      <path fill="none" d="M2013.0201 1647.6099 L2200.5627 1647.6099" clip-path="url(#clipPath2)" stroke="navy"/>
      <path fill="navy" d="M2005.0201 1647.6099 C2005.0201 1645.4008 2006.811 1643.6099 2009.0201 1643.6099 C2011.2292 1643.6099 2013.0201 1645.4008 2013.0201 1647.6099 C2013.0201 1649.819 2011.2292 1651.6099 2009.0201 1651.6099 C2006.811 1651.6099 2005.0201 1649.819 2005.0201 1647.6099 Z" clip-path="url(#clipPath2)" stroke="none"/>
      <path fill="navy" d="M2211.5627 1647.6099 L2199.5627 1641.6099 L2199.5627 1653.6099 Z" clip-path="url(#clipPath2)" stroke="none"/>
      <rect x="2050.9736" y="1639.7212" clip-path="url(#clipPath2)" fill="white" width="118.6436" height="15.7773" stroke="none"/>
    </g>
    <g stroke-linecap="butt" font-size="10px" transform="matrix(1,0,0,1,-1074,-337)" fill="navy" text-rendering="geometricPrecision" font-family="sans-serif" shape-rendering="geometricPrecision" stroke="navy" stroke-miterlimit="1.45">
      <text x="2052.9736" xml:space="preserve" y="1651.3892" clip-path="url(#clipPath2)" stroke="none">mo:sampled_version_of</text>
    </g>
    <g text-rendering="geometricPrecision" stroke-miterlimit="1.45" shape-rendering="geometricPrecision" transform="matrix(1,0,0,1,-1074,-337)" stroke-linecap="butt">
      <path fill="none" d="M1949.4626 1619.0914 L1948.7769 1442.4956" clip-path="url(#clipPath2)"/>
      <path d="M1948.7457 1434.4956 L1943.7925 1446.515 L1948.7808 1443.4955 L1953.7924 1446.4761 Z" clip-path="url(#clipPath2)" stroke="none"/>
      <rect x="1909.868" y="1518.9235" clip-path="url(#clipPath2)" fill="white" width="78.4727" height="15.7773" stroke="none"/>
      <text x="1911.8679" font-size="10px" y="1530.5914" clip-path="url(#clipPath2)" font-family="sans-serif" stroke="none" xml:space="preserve">owl:subClassOf</text>
      <path fill="none" d="M1886.2848 1178.8945 L1250.3503 1383.5095" clip-path="url(#clipPath2)" stroke="navy"/>
      <path fill="navy" d="M1893.9003 1176.4443 C1894.5769 1178.5474 1893.4205 1180.8007 1891.3176 1181.4772 C1889.2146 1182.1538 1886.9613 1180.9974 1886.2848 1178.8945 C1885.6082 1176.7915 1886.7645 1174.5382 1888.8674 1173.8617 C1890.9705 1173.1851 1893.2238 1174.3414 1893.9003 1176.4443 Z" clip-path="url(#clipPath2)" stroke="none"/>
      <path fill="navy" d="M1239.879 1386.8788 L1253.14 1388.9148 L1249.4645 1377.4916 Z" clip-path="url(#clipPath2)" stroke="none"/>
      <rect x="1528.1291" y="1274.3841" clip-path="url(#clipPath2)" fill="white" width="73.7217" height="15.7773" stroke="none"/>
    </g>
    <g stroke-linecap="butt" font-size="10px" transform="matrix(1,0,0,1,-1074,-337)" fill="navy" text-rendering="geometricPrecision" font-family="sans-serif" shape-rendering="geometricPrecision" stroke="navy" stroke-miterlimit="1.45">
      <text x="1530.1292" xml:space="preserve" y="1286.052" clip-path="url(#clipPath2)" stroke="none">mo:movement</text>
    </g>
    <g stroke-linecap="butt" transform="matrix(1,0,0,1,-1074,-337)" fill="green" text-rendering="geometricPrecision" shape-rendering="geometricPrecision" stroke="green" stroke-miterlimit="1.45">
      <path fill="none" d="M1180.4065 1373.4858 L1180.4065 1283.0961" clip-path="url(#clipPath2)"/>
    </g>
    <g stroke-linecap="butt" transform="matrix(1,0,0,1,-1074,-337)" fill-opacity="0" fill="rgb(0,0,0)" text-rendering="geometricPrecision" shape-rendering="geometricPrecision" stroke="rgb(0,0,0)" stroke-opacity="0" stroke-miterlimit="1.45">
      <path d="M1180.4065 1381.4858 C1178.1974 1381.4858 1176.4065 1379.6949 1176.4065 1377.4858 C1176.4065 1375.2767 1178.1974 1373.4858 1180.4065 1373.4858 C1182.6156 1373.4858 1184.4065 1375.2767 1184.4065 1377.4858 C1184.4065 1379.6949 1182.6156 1381.4858 1180.4065 1381.4858 Z" stroke="none" clip-path="url(#clipPath2)"/>
    </g>
    <g stroke-linecap="butt" transform="matrix(1,0,0,1,-1074,-337)" fill="green" text-rendering="geometricPrecision" shape-rendering="geometricPrecision" stroke="green" stroke-miterlimit="1.45">
      <path fill="none" d="M1180.4065 1381.4858 C1178.1974 1381.4858 1176.4065 1379.6949 1176.4065 1377.4858 C1176.4065 1375.2767 1178.1974 1373.4858 1180.4065 1373.4858 C1182.6156 1373.4858 1184.4065 1375.2767 1184.4065 1377.4858 C1184.4065 1379.6949 1182.6156 1381.4858 1180.4065 1381.4858 Z" clip-path="url(#clipPath2)"/>
      <path fill="white" d="M1180.4065 1268.0961 L1174.4065 1284.0961 L1186.4065 1284.0961 Z" clip-path="url(#clipPath2)" stroke="none"/>
      <path fill="none" d="M1180.4065 1268.0961 L1174.4065 1284.0961 L1186.4065 1284.0961 Z" clip-path="url(#clipPath2)"/>
      <rect x="1122.1931" y="1314.9165" clip-path="url(#clipPath2)" fill="white" width="116.4268" height="15.7773" stroke="none"/>
      <text x="1124.1931" font-size="10px" y="1326.5845" clip-path="url(#clipPath2)" font-family="sans-serif" stroke="none" xml:space="preserve">mo:movement_number</text>
      <path fill="none" d="M1243.8667 1406.0144 L1472.109 1406.0144" clip-path="url(#clipPath2)" stroke="navy"/>
      <path fill="navy" d="M1235.8667 1406.0144 C1235.8667 1403.8053 1237.6576 1402.0144 1239.8667 1402.0144 C1242.0758 1402.0144 1243.8667 1403.8053 1243.8667 1406.0144 C1243.8667 1408.2235 1242.0758 1410.0144 1239.8667 1410.0144 C1237.6576 1410.0144 1235.8667 1408.2235 1235.8667 1406.0144 Z" clip-path="url(#clipPath2)" stroke="none"/>
      <path fill="navy" d="M1483.109 1406.0144 L1471.109 1400.0144 L1471.109 1412.0144 Z" clip-path="url(#clipPath2)" stroke="none"/>
      <rect x="1341.8425" y="1398.1257" clip-path="url(#clipPath2)" fill="white" width="39.2832" height="15.7773" stroke="none"/>
    </g>
    <g stroke-linecap="butt" font-size="10px" transform="matrix(1,0,0,1,-1074,-337)" fill="navy" text-rendering="geometricPrecision" font-family="sans-serif" shape-rendering="geometricPrecision" stroke="navy" stroke-miterlimit="1.45">
      <text x="1343.8424" xml:space="preserve" y="1409.7937" clip-path="url(#clipPath2)" stroke="none">mo:key</text>
    </g>
  </g>
</svg>
