<?xml version="1.0" encoding="UTF-8"?><svg xmlns="http://www.w3.org/2000/svg" xmlns:xlink="http://www.w3.org/1999/xlink" fill-opacity="1" color-rendering="auto" color-interpolation="auto" text-rendering="auto" stroke="black" stroke-linecap="square" width="1446" stroke-miterlimit="10" shape-rendering="auto" stroke-opacity="1" fill="black" stroke-dasharray="none" font-weight="normal" stroke-width="1" height="562" font-family="'Dialog'" font-style="normal" stroke-linejoin="miter" font-size="12px" stroke-dashoffset="0" image-rendering="auto">
  <!--Generated by ySVG 2.5-->
  <defs id="genericDefs"/>
  <g>
    <defs id="defs1">
      <clipPath clipPathUnits="userSpaceOnUse" id="clipPath1">
        <path d="M0 0 L1446 0 L1446 562 L0 562 L0 0 Z"/>
      </clipPath>
      <clipPath clipPathUnits="userSpaceOnUse" id="clipPath2">
        <path d="M-774 -2983 L672 -2983 L672 -2421 L-774 -2421 L-774 -2983 Z"/>
      </clipPath>
    </defs>
    <g fill="white" text-rendering="geometricPrecision" shape-rendering="geometricPrecision" transform="translate(774,2983)" stroke="white">
      <rect x="-774" width="1446" height="562" y="-2983" clip-path="url(#clipPath2)" stroke="none"/>
    </g>
    <g fill="rgb(204,153,255)" text-rendering="geometricPrecision" shape-rendering="geometricPrecision" transform="matrix(1,0,0,1,774,2983)" stroke="rgb(204,153,255)">
      <rect x="-373.338" y="-2493.8216" clip-path="url(#clipPath2)" width="118.9682" rx="4" ry="4" height="57" stroke="none"/>
    </g>
    <g font-size="10px" stroke-linecap="butt" transform="matrix(1,0,0,1,774,2983)" text-rendering="geometricPrecision" font-family="sans-serif" shape-rendering="geometricPrecision" stroke-miterlimit="1.45">
      <text x="-361.0658" xml:space="preserve" y="-2461.5422" clip-path="url(#clipPath2)" stroke="none">tl:AbstractTimeLine</text>
      <rect x="-373.338" y="-2493.8216" clip-path="url(#clipPath2)" fill="none" width="118.9682" rx="4" ry="4" height="57"/>
    </g>
    <g fill="rgb(204,153,255)" text-rendering="geometricPrecision" shape-rendering="geometricPrecision" transform="matrix(1,0,0,1,774,2983)" stroke="rgb(204,153,255)">
      <rect x="-97.032" y="-2493.8216" clip-path="url(#clipPath2)" width="118.9682" rx="4" ry="4" height="57" stroke="none"/>
    </g>
    <g font-size="10px" stroke-linecap="butt" transform="matrix(1,0,0,1,774,2983)" text-rendering="geometricPrecision" font-family="sans-serif" shape-rendering="geometricPrecision" stroke-miterlimit="1.45">
      <text x="-74.7207" xml:space="preserve" y="-2461.5422" clip-path="url(#clipPath2)" stroke="none">tl:TimeLineMap</text>
      <rect x="-97.032" y="-2493.8216" clip-path="url(#clipPath2)" fill="none" width="118.9682" rx="4" ry="4" height="57"/>
    </g>
    <g fill="rgb(204,153,255)" text-rendering="geometricPrecision" shape-rendering="geometricPrecision" transform="matrix(1,0,0,1,774,2983)" stroke="rgb(204,153,255)">
      <rect x="179.2741" y="-2493.8216" clip-path="url(#clipPath2)" width="118.9682" rx="4" ry="4" height="57" stroke="none"/>
    </g>
    <g font-size="10px" stroke-linecap="butt" transform="matrix(1,0,0,1,774,2983)" text-rendering="geometricPrecision" font-family="sans-serif" shape-rendering="geometricPrecision" stroke-miterlimit="1.45">
      <text x="192.0126" xml:space="preserve" y="-2461.5422" clip-path="url(#clipPath2)" stroke="none">tl:DiscreteTimeLine</text>
      <rect x="179.2741" y="-2493.8216" clip-path="url(#clipPath2)" fill="none" width="118.9682" rx="4" ry="4" height="57"/>
    </g>
    <g fill="rgb(204,153,255)" text-rendering="geometricPrecision" shape-rendering="geometricPrecision" transform="matrix(1,0,0,1,774,2983)" stroke="rgb(204,153,255)">
      <rect x="179.2741" y="-2658.6156" clip-path="url(#clipPath2)" width="118.9682" rx="4" ry="4" height="57" stroke="none"/>
    </g>
    <g font-size="10px" stroke-linecap="butt" transform="matrix(1,0,0,1,774,2983)" text-rendering="geometricPrecision" font-family="sans-serif" shape-rendering="geometricPrecision" stroke-miterlimit="1.45">
      <text x="196.0336" xml:space="preserve" y="-2626.3364" clip-path="url(#clipPath2)" stroke="none">tl:DiscreteInterval</text>
      <rect x="179.2741" y="-2658.6156" clip-path="url(#clipPath2)" fill="none" width="118.9682" rx="4" ry="4" height="57"/>
    </g>
    <g fill="yellow" text-rendering="geometricPrecision" shape-rendering="geometricPrecision" transform="matrix(1,0,0,1,774,2983)" stroke="yellow">
      <rect x="179.2741" y="-2967.5857" clip-path="url(#clipPath2)" width="118.9682" rx="4" ry="4" height="57" stroke="none"/>
    </g>
    <g font-size="10px" stroke-linecap="butt" transform="matrix(1,0,0,1,774,2983)" text-rendering="geometricPrecision" font-family="sans-serif" shape-rendering="geometricPrecision" stroke-miterlimit="1.45">
      <text x="197.9232" xml:space="preserve" y="-2935.3064" clip-path="url(#clipPath2)" stroke="none">mo:AnalogSignal</text>
      <rect x="179.2741" y="-2967.5857" clip-path="url(#clipPath2)" fill="none" width="118.9682" rx="4" ry="4" height="57"/>
    </g>
    <g fill="yellow" text-rendering="geometricPrecision" shape-rendering="geometricPrecision" transform="matrix(1,0,0,1,774,2983)" stroke="yellow">
      <rect x="179.2741" y="-2802.7917" clip-path="url(#clipPath2)" width="118.9682" rx="4" ry="4" height="57" stroke="none"/>
    </g>
    <g font-size="10px" stroke-linecap="butt" transform="matrix(1,0,0,1,774,2983)" text-rendering="geometricPrecision" font-family="sans-serif" shape-rendering="geometricPrecision" stroke-miterlimit="1.45">
      <text x="199.0414" xml:space="preserve" y="-2770.5125" clip-path="url(#clipPath2)" stroke="none">mo:DigitalSignal</text>
      <rect x="179.2741" y="-2802.7917" clip-path="url(#clipPath2)" fill="none" width="118.9682" rx="4" ry="4" height="57"/>
    </g>
    <g fill="rgb(153,204,0)" text-rendering="geometricPrecision" shape-rendering="geometricPrecision" transform="matrix(1,0,0,1,774,2983)" stroke="rgb(153,204,0)">
      <rect x="-610.0931" y="-2967.5857" clip-path="url(#clipPath2)" width="118.9682" rx="4" ry="4" height="57" stroke="none"/>
    </g>
    <g font-size="10px" stroke-linecap="butt" transform="matrix(1,0,0,1,774,2983)" text-rendering="geometricPrecision" font-family="sans-serif" shape-rendering="geometricPrecision" stroke-miterlimit="1.45">
      <text x="-587.3766" xml:space="preserve" y="-2935.3064" clip-path="url(#clipPath2)" stroke="none">hamse:Position</text>
      <rect x="-610.0931" y="-2967.5857" clip-path="url(#clipPath2)" fill="none" width="118.9682" rx="4" ry="4" height="57"/>
    </g>
    <g fill="rgb(204,153,255)" text-rendering="geometricPrecision" shape-rendering="geometricPrecision" transform="matrix(1,0,0,1,774,2983)" stroke="rgb(204,153,255)">
      <rect x="-373.338" y="-2637.9977" clip-path="url(#clipPath2)" width="118.9682" rx="4" ry="4" height="57" stroke="none"/>
    </g>
    <g font-size="10px" stroke-linecap="butt" transform="matrix(1,0,0,1,774,2983)" text-rendering="geometricPrecision" font-family="sans-serif" shape-rendering="geometricPrecision" stroke-miterlimit="1.45">
      <text x="-357.0448" xml:space="preserve" y="-2605.7185" clip-path="url(#clipPath2)" stroke="none">tl:AbstractInterval</text>
      <rect x="-373.338" y="-2637.9977" clip-path="url(#clipPath2)" fill="none" width="118.9682" rx="4" ry="4" height="57"/>
    </g>
    <g fill="rgb(153,204,0)" text-rendering="geometricPrecision" shape-rendering="geometricPrecision" transform="matrix(1,0,0,1,774,2983)" stroke="rgb(153,204,0)">
      <rect x="-166.757" y="-2967.5857" clip-path="url(#clipPath2)" width="118.9682" rx="4" ry="4" height="57" stroke="none"/>
    </g>
    <g font-size="10px" stroke-linecap="butt" transform="matrix(1,0,0,1,774,2983)" text-rendering="geometricPrecision" font-family="sans-serif" shape-rendering="geometricPrecision" stroke-miterlimit="1.45">
      <text x="-157.6049" xml:space="preserve" y="-2941.1951" clip-path="url(#clipPath2)" stroke="none">hamse:Musicological</text>
      <text x="-127.8539" xml:space="preserve" y="-2929.4177" clip-path="url(#clipPath2)" stroke="none">Features</text>
      <rect x="-166.757" y="-2967.5857" clip-path="url(#clipPath2)" fill="none" width="118.9682" rx="4" ry="4" height="57"/>
      <text x="472.5801" xml:space="preserve" font-size="12px" y="-2551.5027" clip-path="url(#clipPath2)" stroke="none">"endDuration"^^xsd:duration</text>
      <text x="472.5801" xml:space="preserve" font-size="12px" y="-2687.6331" clip-path="url(#clipPath2)" stroke="none">"beginDuration"^^xsd:duration</text>
      <text x="-745.6592" xml:space="preserve" font-size="12px" y="-2645.0142" clip-path="url(#clipPath2)" stroke="none">"endDuration"^^xsd:duration</text>
      <text x="-756.6104" xml:space="preserve" font-size="12px" y="-2542.1526" clip-path="url(#clipPath2)" stroke="none">"beginDuration"^^xsd:duration</text>
    </g>
    <g stroke-linecap="butt" transform="matrix(1,0,0,1,774,2983)" fill="navy" text-rendering="geometricPrecision" shape-rendering="geometricPrecision" stroke="navy" stroke-miterlimit="1.45">
      <path fill="none" d="M-101.0117 -2465.3215 L-243.3758 -2465.3215" clip-path="url(#clipPath2)"/>
      <path d="M-93.0117 -2465.3215 C-93.0117 -2463.1123 -94.8026 -2461.3215 -97.0117 -2461.3215 C-99.2208 -2461.3215 -101.0117 -2463.1123 -101.0117 -2465.3215 C-101.0117 -2467.5308 -99.2208 -2469.3215 -97.0117 -2469.3215 C-94.8026 -2469.3215 -93.0117 -2467.5308 -93.0117 -2465.3215 Z" clip-path="url(#clipPath2)" stroke="none"/>
      <path d="M-254.3758 -2465.3215 L-242.3758 -2459.3215 L-242.3758 -2471.3215 Z" clip-path="url(#clipPath2)" stroke="none"/>
      <rect x="-218.4724" y="-2473.2103" clip-path="url(#clipPath2)" fill="white" width="85.543" height="15.7773" stroke="none"/>
      <text x="-216.4724" font-size="10px" y="-2461.5422" clip-path="url(#clipPath2)" font-family="sans-serif" stroke="none" xml:space="preserve">tl:rangeTimeLine</text>
      <path fill="none" d="M25.9159 -2465.3215 L168.2801 -2465.3215" clip-path="url(#clipPath2)"/>
      <path d="M17.9159 -2465.3215 C17.9159 -2467.5308 19.7068 -2469.3215 21.9159 -2469.3215 C24.1251 -2469.3215 25.9159 -2467.5308 25.9159 -2465.3215 C25.9159 -2463.1123 24.1251 -2461.3215 21.9159 -2461.3215 C19.7068 -2461.3215 17.9159 -2463.1123 17.9159 -2465.3215 Z" clip-path="url(#clipPath2)" stroke="none"/>
      <path d="M179.2801 -2465.3215 L167.2801 -2471.3215 L167.2801 -2459.3215 Z" clip-path="url(#clipPath2)" stroke="none"/>
      <rect x="53.4513" y="-2473.2103" clip-path="url(#clipPath2)" fill="white" width="94.3076" height="15.7773" stroke="none"/>
      <text x="55.4513" font-size="10px" y="-2461.5422" clip-path="url(#clipPath2)" font-family="sans-serif" stroke="none" xml:space="preserve">tl:domainTimeLine</text>
      <path fill="none" d="M238.7582 -2597.5906 L238.7582 -2504.833" clip-path="url(#clipPath2)"/>
      <path d="M238.7582 -2605.5906 C240.9673 -2605.5906 242.7582 -2603.7998 242.7582 -2601.5906 C242.7582 -2599.3813 240.9673 -2597.5906 238.7582 -2597.5906 C236.549 -2597.5906 234.7582 -2599.3813 234.7582 -2601.5906 C234.7582 -2603.7998 236.549 -2605.5906 238.7582 -2605.5906 Z" clip-path="url(#clipPath2)" stroke="none"/>
      <path d="M238.7582 -2493.833 L244.7582 -2505.833 L232.7582 -2505.833 Z" clip-path="url(#clipPath2)" stroke="none"/>
      <rect x="211.0917" y="-2555.6073" clip-path="url(#clipPath2)" fill="white" width="55.333" height="15.7773" stroke="none"/>
      <text x="213.0917" font-size="10px" y="-2543.9392" clip-path="url(#clipPath2)" font-family="sans-serif" stroke="none" xml:space="preserve">tl:timeLine</text>
      <path fill="none" d="M238.7582 -2741.8154 L238.7582 -2669.6169" clip-path="url(#clipPath2)"/>
      <path d="M238.7582 -2749.8154 C240.9673 -2749.8154 242.7582 -2748.0247 242.7582 -2745.8154 C242.7582 -2743.6062 240.9673 -2741.8154 238.7582 -2741.8154 C236.549 -2741.8154 234.7582 -2743.6062 234.7582 -2745.8154 C234.7582 -2748.0247 236.549 -2749.8154 238.7582 -2749.8154 Z" clip-path="url(#clipPath2)" stroke="none"/>
      <path d="M238.7582 -2658.6169 L244.7582 -2670.6169 L232.7582 -2670.6169 Z" clip-path="url(#clipPath2)" stroke="none"/>
      <rect x="216.6678" y="-2710.0923" clip-path="url(#clipPath2)" fill="white" width="44.1807" height="15.7773" stroke="none"/>
      <text x="218.6678" font-size="10px" y="-2698.4243" clip-path="url(#clipPath2)" font-family="sans-serif" stroke="none" xml:space="preserve">mo:time</text>
      <path fill="none" d="M238.7582 -2806.8169 L238.7582 -2899.5745" clip-path="url(#clipPath2)"/>
      <path d="M238.7582 -2798.8169 C236.549 -2798.8169 234.7582 -2800.6077 234.7582 -2802.8169 C234.7582 -2805.0261 236.549 -2806.8169 238.7582 -2806.8169 C240.9673 -2806.8169 242.7582 -2805.0261 242.7582 -2802.8169 C242.7582 -2800.6077 240.9673 -2798.8169 238.7582 -2798.8169 Z" clip-path="url(#clipPath2)" stroke="none"/>
      <path d="M238.7582 -2910.5745 L232.7582 -2898.5745 L244.7582 -2898.5745 Z" clip-path="url(#clipPath2)" stroke="none"/>
      <rect x="179.4364" y="-2864.5774" clip-path="url(#clipPath2)" fill="white" width="118.6436" height="15.7773" stroke="none"/>
      <text x="181.4364" font-size="10px" y="-2852.9094" clip-path="url(#clipPath2)" font-family="sans-serif" stroke="none" xml:space="preserve">mo:sampled_version_of</text>
      <path fill="none" d="M-527.7847 -2907.3118 L-340.7311 -2646.9136" clip-path="url(#clipPath2)"/>
      <path d="M-532.4519 -2913.8093 C-530.6577 -2915.0981 -528.1584 -2914.6885 -526.8696 -2912.8943 C-525.5807 -2911.0999 -525.9904 -2908.6006 -527.7847 -2907.3118 C-529.5789 -2906.0229 -532.0782 -2906.4326 -533.367 -2908.2268 C-534.6558 -2910.0212 -534.2462 -2912.5205 -532.4519 -2913.8093 Z" clip-path="url(#clipPath2)" stroke="none"/>
      <path d="M-334.3135 -2637.9797 L-336.4415 -2651.2263 L-346.1875 -2644.2253 Z" clip-path="url(#clipPath2)" stroke="none"/>
      <rect x="-509.9443" y="-2782.1804" clip-path="url(#clipPath2)" fill="white" width="155.4258" height="15.7773" stroke="none"/>
      <text x="-507.9443" font-size="10px" y="-2770.5125" clip-path="url(#clipPath2)" font-family="sans-serif" stroke="none" xml:space="preserve">hamse:isDefinedAtTimeInterval</text>
      <path fill="none" d="M-313.8539 -2577.0215 L-313.8539 -2504.823" clip-path="url(#clipPath2)"/>
      <path d="M-313.8539 -2585.0215 C-311.6448 -2585.0215 -309.8539 -2583.2307 -309.8539 -2581.0215 C-309.8539 -2578.8123 -311.6448 -2577.0215 -313.8539 -2577.0215 C-316.063 -2577.0215 -317.8539 -2578.8123 -317.8539 -2581.0215 C-317.8539 -2583.2307 -316.063 -2585.0215 -313.8539 -2585.0215 Z" clip-path="url(#clipPath2)" stroke="none"/>
      <path d="M-313.8539 -2493.823 L-307.8539 -2505.823 L-319.8539 -2505.823 Z" clip-path="url(#clipPath2)" stroke="none"/>
      <rect x="-341.5204" y="-2545.2984" clip-path="url(#clipPath2)" fill="white" width="55.333" height="15.7773" stroke="none"/>
      <text x="-339.5204" font-size="10px" y="-2533.6304" clip-path="url(#clipPath2)" font-family="sans-serif" stroke="none" xml:space="preserve">tl:timeLine</text>
      <path fill="none" d="M-127.2763 -2907.1714 L-290.1599 -2647.3" clip-path="url(#clipPath2)"/>
      <path d="M-123.0275 -2913.9497 C-121.1557 -2912.7766 -120.5894 -2910.3079 -121.7627 -2908.436 C-122.936 -2906.5642 -125.4045 -2905.998 -127.2763 -2907.1714 C-129.1482 -2908.3445 -129.7145 -2910.8132 -128.5412 -2912.6851 C-127.3679 -2914.5569 -124.8994 -2915.123 -123.0275 -2913.9497 Z" clip-path="url(#clipPath2)" stroke="none"/>
      <path d="M-296.002 -2637.9795 L-284.545 -2644.9607 L-294.7127 -2651.3337 Z" clip-path="url(#clipPath2)" stroke="none"/>
      <rect x="-288.2763" y="-2782.1804" clip-path="url(#clipPath2)" fill="white" width="155.4258" height="15.7773" stroke="none"/>
      <text x="-286.2763" font-size="10px" y="-2770.5125" clip-path="url(#clipPath2)" font-family="sans-serif" stroke="none" xml:space="preserve">hamse:isDefinedAtTimeInterval</text>
      <path fill="none" d="M302.0549 -2610.188 L456.2724 -2561.636" clip-path="url(#clipPath2)" stroke="green"/>
    </g>
    <g stroke-linecap="butt" transform="matrix(1,0,0,1,774,2983)" fill-opacity="0" fill="rgb(0,0,0)" text-rendering="geometricPrecision" shape-rendering="geometricPrecision" stroke="rgb(0,0,0)" stroke-opacity="0" stroke-miterlimit="1.45">
      <path d="M294.4241 -2612.5903 C295.0875 -2614.6975 297.3335 -2615.8679 299.4407 -2615.2046 C301.5479 -2614.5413 302.7183 -2612.2952 302.0549 -2610.188 C301.3915 -2608.0808 299.1455 -2606.9104 297.0383 -2607.5737 C294.9312 -2608.2371 293.7607 -2610.4832 294.4241 -2612.5903 Z" stroke="none" clip-path="url(#clipPath2)"/>
    </g>
    <g stroke-linecap="butt" transform="matrix(1,0,0,1,774,2983)" fill="green" text-rendering="geometricPrecision" shape-rendering="geometricPrecision" stroke="green" stroke-miterlimit="1.45">
      <path fill="none" d="M294.4241 -2612.5903 C295.0875 -2614.6975 297.3335 -2615.8679 299.4407 -2615.2046 C301.5479 -2614.5413 302.7183 -2612.2952 302.0549 -2610.188 C301.3915 -2608.0808 299.1455 -2606.9104 297.0383 -2607.5737 C294.9312 -2608.2371 293.7607 -2610.4832 294.4241 -2612.5903 Z" clip-path="url(#clipPath2)"/>
      <path fill="white" d="M470.5801 -2557.1316 L457.1204 -2567.6594 L453.5168 -2556.2131 Z" clip-path="url(#clipPath2)" stroke="none"/>
      <path fill="none" d="M470.5801 -2557.1316 L457.1204 -2567.6594 L453.5168 -2556.2131 Z" clip-path="url(#clipPath2)"/>
      <rect x="339.4644" y="-2592.1486" clip-path="url(#clipPath2)" fill="white" width="89.8936" height="15.7773" stroke="none"/>
      <text x="341.4644" font-size="10px" y="-2580.4807" clip-path="url(#clipPath2)" font-family="sans-serif" stroke="none" xml:space="preserve">tl:endsAtDuration</text>
      <path fill="none" d="M302.1218 -2645.8367 L456.0215 -2684.0203" clip-path="url(#clipPath2)"/>
    </g>
    <g stroke-linecap="butt" transform="matrix(1,0,0,1,774,2983)" fill-opacity="0" fill="rgb(0,0,0)" text-rendering="geometricPrecision" shape-rendering="geometricPrecision" stroke="rgb(0,0,0)" stroke-opacity="0" stroke-miterlimit="1.45">
      <path d="M294.3573 -2643.9099 C293.8253 -2646.054 295.1321 -2648.2234 297.2762 -2648.7556 C299.4203 -2649.2876 301.5898 -2647.9807 302.1218 -2645.8367 C302.6539 -2643.6926 301.347 -2641.5232 299.2029 -2640.991 C297.0588 -2640.459 294.8894 -2641.7659 294.3573 -2643.9099 Z" stroke="none" clip-path="url(#clipPath2)"/>
    </g>
    <g stroke-linecap="butt" transform="matrix(1,0,0,1,774,2983)" fill="green" text-rendering="geometricPrecision" shape-rendering="geometricPrecision" stroke="green" stroke-miterlimit="1.45">
      <path fill="none" d="M294.3573 -2643.9099 C293.8253 -2646.054 295.1321 -2648.2234 297.2762 -2648.7556 C299.4203 -2649.2876 301.5898 -2647.9807 302.1218 -2645.8367 C302.6539 -2643.6926 301.347 -2641.5232 299.2029 -2640.991 C297.0588 -2640.459 294.8894 -2641.7659 294.3573 -2643.9099 Z" clip-path="url(#clipPath2)"/>
      <path fill="white" d="M470.5801 -2687.6326 L453.606 -2689.6028 L456.4959 -2677.9561 Z" clip-path="url(#clipPath2)" stroke="none"/>
      <path fill="none" d="M470.5801 -2687.6326 L453.606 -2689.6028 L456.4959 -2677.9561 Z" clip-path="url(#clipPath2)"/>
      <rect x="334.9014" y="-2674.1419" clip-path="url(#clipPath2)" fill="white" width="99.0195" height="15.7773" stroke="none"/>
      <text x="336.9014" font-size="10px" y="-2662.4739" clip-path="url(#clipPath2)" font-family="sans-serif" stroke="none" xml:space="preserve">tl:beginsAtDuration</text>
      <path fill="none" d="M-377.3027 -2618.457 L-558.0936 -2643.9854" clip-path="url(#clipPath2)"/>
    </g>
    <g stroke-linecap="butt" transform="matrix(1,0,0,1,774,2983)" fill-opacity="0" fill="rgb(0,0,0)" text-rendering="geometricPrecision" shape-rendering="geometricPrecision" stroke="rgb(0,0,0)" stroke-opacity="0" stroke-miterlimit="1.45">
      <path d="M-369.3813 -2617.3384 C-369.6902 -2615.1509 -371.7139 -2613.6282 -373.9013 -2613.937 C-376.0888 -2614.2458 -377.6116 -2616.2695 -377.3027 -2618.457 C-376.9938 -2620.6445 -374.9701 -2622.1672 -372.7827 -2621.8584 C-370.5952 -2621.5496 -369.0724 -2619.5259 -369.3813 -2617.3384 Z" stroke="none" clip-path="url(#clipPath2)"/>
    </g>
    <g stroke-linecap="butt" transform="matrix(1,0,0,1,774,2983)" fill="green" text-rendering="geometricPrecision" shape-rendering="geometricPrecision" stroke="green" stroke-miterlimit="1.45">
      <path fill="none" d="M-369.3813 -2617.3384 C-369.6902 -2615.1509 -371.7139 -2613.6282 -373.9013 -2613.937 C-376.0888 -2614.2458 -377.6116 -2616.2695 -377.3027 -2618.457 C-376.9938 -2620.6445 -374.9701 -2622.1672 -372.7827 -2621.8584 C-370.5952 -2621.5496 -369.0724 -2619.5259 -369.3813 -2617.3384 Z" clip-path="url(#clipPath2)"/>
      <path fill="white" d="M-572.9463 -2646.0825 L-557.9423 -2637.9045 L-556.2646 -2649.7866 Z" clip-path="url(#clipPath2)" stroke="none"/>
      <path fill="none" d="M-572.9463 -2646.0825 L-557.9423 -2637.9045 L-556.2646 -2649.7866 Z" clip-path="url(#clipPath2)"/>
      <rect x="-518.0889" y="-2639.8785" clip-path="url(#clipPath2)" fill="white" width="89.8936" height="15.7773" stroke="none"/>
      <text x="-516.0889" font-size="10px" y="-2628.2104" clip-path="url(#clipPath2)" font-family="sans-serif" stroke="none" xml:space="preserve">tl:endsAtDuration</text>
      <path fill="none" d="M-377.2306 -2594.2207 L-558.364 -2550.5586" clip-path="url(#clipPath2)"/>
    </g>
    <g stroke-linecap="butt" transform="matrix(1,0,0,1,774,2983)" fill-opacity="0" fill="rgb(0,0,0)" text-rendering="geometricPrecision" shape-rendering="geometricPrecision" stroke="rgb(0,0,0)" stroke-opacity="0" stroke-miterlimit="1.45">
      <path d="M-369.4535 -2596.0957 C-368.9357 -2593.948 -370.257 -2591.7874 -372.4045 -2591.2695 C-374.5522 -2590.752 -376.7129 -2592.073 -377.2306 -2594.2207 C-377.7484 -2596.3684 -376.4271 -2598.5291 -374.2795 -2599.0469 C-372.1319 -2599.5645 -369.9712 -2598.2434 -369.4535 -2596.0957 Z" stroke="none" clip-path="url(#clipPath2)"/>
    </g>
    <g stroke-linecap="butt" transform="matrix(1,0,0,1,774,2983)" fill="green" text-rendering="geometricPrecision" shape-rendering="geometricPrecision" stroke="green" stroke-miterlimit="1.45">
      <path fill="none" d="M-369.4535 -2596.0957 C-368.9357 -2593.948 -370.257 -2591.7874 -372.4045 -2591.2695 C-374.5522 -2590.752 -376.7129 -2592.073 -377.2306 -2594.2207 C-377.7484 -2596.3684 -376.4271 -2598.5291 -374.2795 -2599.0469 C-372.1319 -2599.5645 -369.9712 -2598.2434 -369.4535 -2596.0957 Z" clip-path="url(#clipPath2)"/>
      <path fill="white" d="M-572.9463 -2547.0435 L-555.9858 -2544.96 L-558.7979 -2556.626 Z" clip-path="url(#clipPath2)" stroke="none"/>
      <path fill="none" d="M-572.9463 -2547.0435 L-555.9858 -2544.96 L-558.7979 -2556.626 Z" clip-path="url(#clipPath2)"/>
      <rect x="-522.6519" y="-2578.99" clip-path="url(#clipPath2)" fill="white" width="99.0195" height="15.7773" stroke="none"/>
      <text x="-520.6519" font-size="10px" y="-2567.322" clip-path="url(#clipPath2)" font-family="sans-serif" stroke="none" xml:space="preserve">tl:beginsAtDuration</text>
    </g>
  </g>
</svg>
